<svg width="36" height="35" viewBox="0 0 36 35" fill="none" xmlns="http://www.w3.org/2000/svg">
    <path d="M22.4146 17.8097C22.256 19.9506 20.4687 21.6383 18.2873 21.6383C16.0016 21.6383 14.1486 19.7853 14.1486 17.4996C14.1486 15.3182 15.8363 13.5309 17.9772 13.3723L17.4546 13.8951C16.2314 15.1186 16.2313 17.1088 17.4546 18.3318L17.4547 18.3318C18.0482 18.9246 18.8367 19.251 19.6736 19.251C20.5112 19.251 21.3001 18.9246 21.8921 18.3326L21.8922 18.3325L22.4146 17.8097Z" fill="white" stroke="white" stroke-width="0.385"/>
    <path d="M18.951 16.8349L18.9511 16.835C19.1497 17.034 19.4111 17.1335 19.6727 17.1335C19.9343 17.1335 20.1945 17.0339 20.3945 16.8348L18.951 16.8349ZM18.951 16.8349C18.5529 16.4364 18.553 15.7901 18.951 15.3918L25.545 8.79772L25.605 8.73773L25.6012 8.65299L25.4793 5.92935C25.4793 5.9293 25.4793 5.92924 25.4793 5.92919C25.472 5.76143 25.4906 5.63374 25.5337 5.52295C25.5767 5.41218 25.6492 5.30563 25.768 5.18725L25.7682 5.18704L30.1813 0.774394L30.1814 0.774316C30.2996 0.655998 30.3992 0.586292 30.4767 0.552C30.5532 0.518181 30.5932 0.524645 30.6111 0.531612C30.6291 0.538576 30.6629 0.56076 30.6966 0.637273C30.7307 0.714858 30.7572 0.833485 30.7646 1.00053L30.7646 1.00057L30.9293 4.67361L30.9371 4.84944L31.113 4.8573L34.7862 5.02138C34.7862 5.02138 34.7863 5.02138 34.7863 5.02138C34.9533 5.0289 35.072 5.05544 35.1496 5.08955C35.2262 5.12321 35.2484 5.15709 35.2554 5.17505C35.2624 5.19298 35.2689 5.23291 35.2351 5.30933C35.2009 5.38684 35.1312 5.48646 35.013 5.60472L30.5999 10.0178C30.5999 10.0178 30.5999 10.0178 30.5999 10.0179C30.4811 10.1365 30.3744 10.2088 30.2636 10.2518C30.1528 10.2947 30.0252 10.3132 29.8575 10.3059L27.1339 10.1843L27.0491 10.1805L26.9892 10.2405L20.3948 16.8345L18.951 16.8349Z" fill="white" stroke="white" stroke-width="0.385"/>
    <path d="M32.6865 17.5C32.6865 15.9622 32.4409 14.481 31.9922 13.0912L34.1243 10.9591C34.9588 12.9741 35.4204 15.1827 35.4204 17.5001C35.4204 26.9617 27.7495 34.6325 18.2879 34.6325C8.82627 34.6325 1.15539 26.9617 1.15539 17.5001C1.15539 8.03843 8.82627 0.367549 18.2879 0.367549C20.6046 0.367549 22.8135 0.829504 24.8283 1.66339L22.6961 3.79557C21.306 3.34608 19.8253 3.10098 18.2875 3.10098C10.3475 3.10098 3.88855 9.5603 3.88855 17.5C3.88855 25.44 10.3479 31.899 18.2875 31.899C26.2267 31.899 32.6865 25.4404 32.6865 17.5Z" fill="white" stroke="white" stroke-width="0.385"/>
    <path d="M18.2874 6.95068C19.6634 6.95068 20.976 7.21798 22.1813 7.69809L20.0021 9.87677C19.4507 9.75186 18.8771 9.68445 18.2873 9.68445C13.9775 9.68445 10.4718 13.1904 10.4718 17.5C10.4718 21.8095 13.9769 25.3152 18.2866 25.3155C22.5965 25.3155 26.1021 21.8097 26.1021 17.5C26.1021 16.9101 26.0345 16.3367 25.9098 15.7847L28.0883 13.6057C28.5691 14.8109 28.8364 16.1231 28.8364 17.4997C28.8364 23.3253 24.1132 28.0487 18.2874 28.0487C12.4612 28.0487 7.7384 23.3255 7.7384 17.4997C7.7384 11.674 12.4613 6.95068 18.2874 6.95068Z" fill="white" stroke="white" stroke-width="0.385"/>
</svg>