<svg width="36" height="36" viewBox="0 0 36 36" fill="none" xmlns="http://www.w3.org/2000/svg">
<g clip-path="url(#clip0_2555_1771)">
<path d="M17.9384 16.5659V21.5532H17.9327C17.474 21.379 16.8413 21.1411 16.1503 20.9436C15.9588 20.8798 15.7556 20.8275 15.558 20.7811V20.7808C15.0583 20.6522 14.5501 20.5592 14.0371 20.5022V16.5659C14.0361 16.449 14.1291 16.3533 14.246 16.351H17.7295C17.8462 16.3533 17.9395 16.449 17.9384 16.5659L17.9384 16.5659Z" fill="white"/>
<path d="M23.4954 12.0254V21.9883C23.391 21.9883 23.2806 21.9883 23.1645 21.994L22.6129 22.0173C21.8988 22.0406 21.1557 22.0696 20.4124 22.0406C20.0988 22.0233 19.8318 22.0059 19.5879 21.9709V12.0253H19.5881C19.5881 11.9667 19.6115 11.9108 19.6527 11.8693C19.6942 11.8278 19.7501 11.8047 19.8087 11.8047H23.2748C23.3334 11.8047 23.3894 11.8278 23.4309 11.8693C23.4724 11.9108 23.4954 11.9667 23.4954 12.0253L23.4954 12.0254Z" fill="white"/>
<path d="M29.0537 6.61469V20.9435C28.7578 21.1524 28.4498 21.3847 28.1305 21.6402C27.6137 22.0523 27.0855 22.4937 26.5686 22.9582H26.5689C26.4976 22.8446 26.4139 22.7394 26.3193 22.6446C26.0891 22.4346 25.8157 22.2781 25.5182 22.186C25.3963 22.1453 25.2743 22.1163 25.1465 22.0873V6.61456C25.1465 6.55598 25.1696 6.49999 25.211 6.45852C25.2525 6.41705 25.3085 6.39398 25.3671 6.39398H28.8389C28.9589 6.39631 29.0545 6.49455 29.0538 6.61455L29.0537 6.61469Z" fill="white"/>
<path d="M6.49361 13.4792L12.1725 8.32837C12.2313 8.27497 12.309 8.24828 12.3881 8.25372C12.4669 8.25942 12.5402 8.297 12.5908 8.35791L14.0762 10.1455L19.3776 4.79405L17.9801 3.75239C17.9418 3.72388 17.9249 3.67463 17.9376 3.62875C17.9501 3.58262 17.9897 3.54892 18.0372 3.54374L23.0919 3.001C23.1474 2.99504 23.2026 3.01603 23.2399 3.05776C23.2772 3.09923 23.2925 3.15599 23.2808 3.21068L22.2075 8.21638L22.2073 8.21664C22.1974 8.26278 22.1603 8.29855 22.1137 8.30658C22.067 8.31462 22.0201 8.29362 21.9952 8.25345L21.0155 6.6791L14.4451 13.8312C14.3883 13.8929 14.3077 13.9271 14.2237 13.9251C14.1397 13.923 14.0609 13.8846 14.0075 13.8198L12.2946 11.7489L8.13356 15.7169V15.7171C8.07187 15.7757 7.98764 15.8045 7.90314 15.7956C7.81839 15.7868 7.74192 15.7415 7.69372 15.6712L6.44934 13.8588H6.4496C6.36718 13.739 6.3861 13.577 6.49366 13.4793L6.49361 13.4792Z" fill="white"/>
<path d="M9.60276 34.1746C9.37442 34.3597 9.03954 34.3244 8.85477 34.0961L3.61266 27.6231C3.52402 27.5134 3.48229 27.3732 3.49706 27.233C3.51183 27.0925 3.58155 26.9639 3.69119 26.8753L5.70638 25.2434C5.93655 25.0594 6.27193 25.0959 6.45696 25.3251L11.6973 31.7947C11.7859 31.9043 11.8277 32.0446 11.8129 32.1848C11.7978 32.325 11.7281 32.4536 11.6185 32.5422L9.60276 34.1746Z" fill="white"/>
<path d="M20.7616 30.6685H20.7383C18.6425 30.6685 16.0529 29.5073 12.3022 30.802L7.39062 24.7348C8.40509 22.9674 10.2197 21.8073 12.2499 21.6287C15.5384 21.3156 17.4632 23.1305 20.3608 23.1963C22.2726 23.2852 24.2427 22.9796 25.145 23.2891H25.1507C25.3575 23.3529 25.5939 23.4747 25.6094 23.6898C25.6146 23.7028 25.6164 23.7168 25.6151 23.7305C25.5669 24.4036 23.7808 25.4653 23.142 25.7219C21.2724 26.4823 17.6381 25.2691 15.6349 25.9017V25.9074H15.6232V25.9077C15.3495 26.0046 15.2038 26.3027 15.2958 26.5782C15.3876 26.8535 15.6828 27.0046 15.9599 26.918C17.69 26.3664 21.3476 27.5973 23.542 26.7148C24.4015 26.3584 25.1899 25.8511 25.8703 25.2169C25.87 25.2136 25.8729 25.211 25.876 25.211C27.0652 24.0218 32.1105 19.3868 33.273 20.5199C34.3105 21.6376 27.3005 30.6685 20.7615 30.6685L20.7616 30.6685Z" fill="white"/>
</g>
<defs>
<clipPath id="clip0_2555_1771">
<rect width="36" height="36" fill="white"/>
</clipPath>
</defs>
</svg>
