<svg width="36" height="36" viewBox="0 0 36 36" fill="none" xmlns="http://www.w3.org/2000/svg">
<path d="M11.156 9.202C11.156 9.78592 10.924 10.346 10.5111 10.7591C10.098 11.172 9.53786 11.404 8.95396 11.404C8.37005 11.404 7.80992 11.172 7.39683 10.7591C6.98395 10.346 6.75195 9.78591 6.75195 9.202C6.75195 8.61809 6.98395 8.05797 7.39683 7.64487C7.80995 7.232 8.37005 7 8.95396 7C9.53786 7 10.098 7.232 10.5111 7.64487C10.924 8.05799 11.156 8.61809 11.156 9.202Z" fill="white"/>
<path d="M13.1542 14.707H4.75391C5.73745 13.3796 7.30244 12.6104 8.95419 12.6426C10.6059 12.6104 12.1709 13.3797 13.1545 14.707H13.1542Z" fill="white"/>
<path d="M20.5153 9.202C20.5153 9.78592 20.2833 10.346 19.8705 10.7591C19.4573 11.172 18.8972 11.404 18.3133 11.404C17.7294 11.404 17.1693 11.172 16.7562 10.7591C16.3433 10.346 16.1113 9.78591 16.1113 9.202C16.1113 8.61809 16.3433 8.05797 16.7562 7.64487C17.1693 7.232 17.7294 7 18.3133 7C18.8972 7 19.4574 7.232 19.8705 7.64487C20.2833 8.05799 20.5153 8.61809 20.5153 9.202Z" fill="white"/>
<path d="M22.5136 14.707H14.1133C15.0968 13.3796 16.6618 12.6104 18.3136 12.6426C19.9653 12.6104 21.5303 13.3797 22.5139 14.707H22.5136Z" fill="white"/>
<path d="M29.8728 9.202C29.8728 9.78592 29.6408 10.346 29.2279 10.7591C28.8148 11.172 28.2547 11.404 27.6708 11.404C27.0868 11.404 26.5267 11.172 26.1136 10.7591C25.7007 10.346 25.4688 9.78591 25.4688 9.202C25.4688 8.61809 25.7007 8.05797 26.1136 7.64487C26.5267 7.232 27.0868 7 27.6708 7C28.2547 7 28.8148 7.232 29.2279 7.64487C29.6408 8.05799 29.8728 8.61809 29.8728 9.202Z" fill="white"/>
<path d="M31.873 14.707H23.4727C24.4771 13.4052 26.0286 12.6426 27.6729 12.6426C29.3173 12.6426 30.8688 13.4052 31.8732 14.707H31.873Z" fill="white"/>
<path d="M20.2402 22.414C20.2402 22.925 20.0372 23.415 19.6759 23.7765C19.3144 24.1378 18.8244 24.3408 18.3135 24.3408C17.8025 24.3408 17.3125 24.1378 16.951 23.7765C16.5897 23.415 16.3867 22.925 16.3867 22.414C16.3867 21.9031 16.5897 21.4131 16.951 21.0516C17.3125 20.6903 17.8025 20.4873 18.3135 20.4873C18.8244 20.4878 19.3139 20.691 19.6752 21.0523C20.0365 21.4136 20.2398 21.9031 20.2402 22.4141L20.2402 22.414Z" fill="white"/>
<path d="M27.7098 18.5605H8.91539C8.53987 19.485 7.72864 20.1618 6.75195 20.3661V24.4619C7.72857 24.6661 8.53985 25.343 8.91539 26.2675H27.7098C28.0853 25.343 28.8966 24.6661 29.8732 24.4619V20.3661C28.8966 20.1618 28.0853 19.485 27.7098 18.5605V18.5605ZM11.1564 24.3407C10.6455 24.3407 10.1554 24.1377 9.79393 23.7765C9.43266 23.415 9.22966 22.9249 9.22966 22.414C9.22966 21.9031 9.43266 21.413 9.79393 21.0515C10.1554 20.6903 10.6455 20.4873 11.1564 20.4873C11.6673 20.4873 12.1574 20.6903 12.5189 21.0515C12.8801 21.413 13.0831 21.9031 13.0831 22.414C13.0826 22.9249 12.8794 23.4145 12.5181 23.7758C12.1569 24.1371 11.6673 24.3403 11.1564 24.3408L11.1564 24.3407ZM18.3129 25.4417C17.51 25.4417 16.7398 25.1227 16.1719 24.555C15.6042 23.9871 15.2852 23.2168 15.2852 22.414C15.2852 21.6111 15.6041 20.8409 16.1719 20.273C16.7398 19.7052 17.5101 19.3862 18.3129 19.3862C19.1158 19.3862 19.886 19.7052 20.4539 20.273C21.0216 20.8409 21.3407 21.6111 21.3407 22.414C21.3392 23.2167 21.0197 23.9858 20.4522 24.5533C19.8848 25.1208 19.1156 25.4403 18.3129 25.4417ZM25.4694 24.3407C24.9585 24.3407 24.4684 24.1377 24.1069 23.7765C23.7457 23.415 23.5427 22.9249 23.5427 22.414C23.5427 21.9031 23.7457 21.413 24.1069 21.0515C24.4685 20.6903 24.9585 20.4873 25.4694 20.4873C25.9803 20.4873 26.4704 20.6903 26.8319 21.0515C27.1932 21.413 27.3962 21.9031 27.3962 22.414C27.3957 22.9249 27.1924 23.4145 26.8312 23.7758C26.4699 24.1371 25.9804 24.3403 25.4694 24.3408L25.4694 24.3407Z" fill="white"/>
<path d="M32.483 15.9955C32.5071 15.9714 32.3036 15.8082 32.0755 15.8082H4.5505C4.39617 15.808 4.24871 15.8719 4.14303 15.9844V15.9898C4.05136 16.0909 4.00025 16.2223 4 16.3587V28.4697C4.00098 28.7735 4.24674 29.0193 4.5505 29.0202H32.0755C32.3793 29.0193 32.625 28.7735 32.626 28.4697V16.3587C32.6258 16.2241 32.5747 16.0943 32.483 15.9955V15.9955ZM30.9745 24.7211C30.9654 25.1212 30.6666 25.4552 30.2699 25.5083C29.9141 25.5501 29.5776 25.6916 29.2989 25.9165C29.0202 26.1416 28.8111 26.4409 28.6953 26.7799C28.5916 27.1308 28.2684 27.3707 27.9027 27.3689H8.72328C8.35759 27.3707 8.03443 27.1308 7.93069 26.7799C7.81494 26.441 7.60579 26.1416 7.3271 25.9165C7.04841 25.6916 6.71197 25.5501 6.35608 25.5083C5.95942 25.4552 5.66056 25.1212 5.6515 24.7211V20.1077C5.66035 19.7076 5.95944 19.3736 6.35608 19.3205C6.71193 19.2787 7.04839 19.1372 7.3271 18.9123C7.60579 18.6872 7.81493 18.3879 7.93069 18.0489C8.03439 17.698 8.35757 17.4581 8.72328 17.4599H27.9027C28.2684 17.4581 28.5916 17.698 28.6953 18.0489C28.8111 18.3878 29.0202 18.6872 29.2989 18.9123C29.5776 19.1372 29.914 19.2787 30.2699 19.3205C30.6666 19.3736 30.9657 19.7076 30.9745 20.1077V24.7211Z" fill="white"/>
<path d="M11.9816 22.414C11.9816 22.748 11.7803 23.0491 11.4719 23.1769C11.1632 23.3047 10.8081 23.2341 10.5719 22.998C10.3357 22.7618 10.2652 22.4067 10.393 22.098C10.5208 21.7895 10.8218 21.5883 11.1558 21.5883C11.3748 21.588 11.5852 21.6748 11.74 21.8298C11.8951 21.9847 11.9818 22.195 11.9816 22.414L11.9816 22.414Z" fill="white"/>
<path d="M26.296 22.414C26.296 22.748 26.0948 23.0491 25.7863 23.1769C25.4777 23.3047 25.1225 23.2341 24.8863 22.998C24.6502 22.7618 24.5796 22.4067 24.7074 22.098C24.8352 21.7895 25.1363 21.5883 25.4703 21.5883C25.6892 21.588 25.8996 21.6748 26.0544 21.8298C26.2095 21.9847 26.2963 22.195 26.296 22.414L26.296 22.414Z" fill="white"/>
</svg>
